<svg width="91" height="79" viewBox="0 0 91 79" fill="none" xmlns="http://www.w3.org/2000/svg">
<path d="M87.2042 11.1969C89.1032 11.1969 90.7108 9.58968 90.7831 7.61711C90.7831 5.71758 89.1765 4.11034 87.2042 4.03729C85.3041 4.03729 83.6965 5.64453 83.6241 7.61711C83.6241 9.51663 85.2308 11.1239 87.2042 11.1969Z" fill="#B0B0B0"/>
<path d="M73.4679 10.0285C74.84 8.6566 74.84 6.43234 73.4679 5.06046C72.0962 3.68859 69.8721 3.68859 68.5002 5.06046C67.1283 6.43234 67.1283 8.6566 68.5002 10.0284C69.8721 11.4002 72.0962 11.4002 73.4679 10.0285Z" fill="#B0B0B0"/>
<path d="M54.766 11.1969C56.6656 11.1969 58.2728 9.58968 58.3459 7.61711C58.3459 5.71758 56.7386 4.11034 54.766 4.03729C52.8665 4.03729 51.2593 5.64453 51.1862 7.61711C51.1862 9.51663 52.7935 11.1239 54.766 11.1969Z" fill="#B0B0B0"/>
<path d="M38.5468 11.1969C40.4462 11.1969 42.0535 9.58968 42.1266 7.61711C42.1266 5.71758 40.5193 4.11034 38.5468 4.03729C36.6472 4.03729 35.0399 5.64453 34.9668 7.61711C34.9668 9.51663 36.5742 11.1239 38.5468 11.1969Z" fill="#B0B0B0"/>
<path d="M22.3284 4.03729C20.4289 4.03729 18.8216 5.64453 18.7486 7.61711C18.7486 9.51663 20.3558 11.1239 22.3284 11.1969C24.2279 11.1969 25.8352 9.58968 25.9082 7.61711C25.8352 5.64453 24.2279 4.03729 22.3284 4.03729Z" fill="#B0B0B0"/>
<path d="M87.2042 28.0005C89.1032 28.0005 90.7108 26.3932 90.7831 24.4207C90.7831 22.5211 89.1765 20.9139 87.2042 20.8408C85.3041 20.8408 83.6965 22.4481 83.6241 24.4207C83.6241 26.3201 85.2308 27.9274 87.2042 28.0005Z" fill="#B0B0B0"/>
<path d="M70.9843 28.0005C72.8841 28.0005 74.4907 26.3932 74.564 24.4207C74.564 22.5211 72.9564 20.9139 70.9843 20.8408C69.0848 20.8408 67.4776 22.4481 67.4044 24.4207C67.4044 26.3201 69.0118 27.9274 70.9843 28.0005Z" fill="#B0B0B0"/>
<path d="M54.766 28.0005C56.6656 28.0005 58.2728 26.3932 58.3459 24.4207C58.3459 22.5211 56.7386 20.9139 54.766 20.8408C52.8665 20.8408 51.2593 22.4481 51.1862 24.4207C51.1862 26.3201 52.7935 27.9274 54.766 28.0005Z" fill="#B0B0B0"/>
<path d="M38.5468 28.0005C40.4462 28.0005 42.0535 26.3931 42.1266 24.4206C42.1266 22.5211 40.5193 20.9138 38.5468 20.8408C36.6472 20.8408 35.0399 22.4481 34.9668 24.4207C34.9668 26.3201 36.5742 27.9274 38.5468 28.0005Z" fill="#B0B0B0"/>
<path d="M24.7385 26.9048C26.1103 25.533 26.1103 23.3087 24.7385 21.9369C23.3666 20.565 21.1423 20.565 19.7705 21.9369C18.3987 23.3087 18.3987 25.533 19.7705 26.9048C21.1423 28.2766 23.3666 28.2766 24.7385 26.9048Z" fill="#B0B0B0"/>
<path d="M87.2031 44.8036C89.1021 44.8036 90.7098 43.1963 90.7831 41.2237C90.7831 39.3243 89.1755 37.717 87.2031 37.6439C85.3031 37.6439 83.6965 39.2513 83.6231 41.2237C83.5497 43.1963 85.2307 44.7306 87.2031 44.8036Z" fill="#B0B0B0"/>
<path d="M70.9843 44.804C72.8841 44.804 74.4907 43.1966 74.564 41.224C74.564 39.3246 72.9564 37.7173 70.9843 37.6442C69.0848 37.6442 67.4776 39.2516 67.4044 41.224C67.4044 43.1236 69.0118 44.7308 70.9843 44.804Z" fill="#B0B0B0"/>
<path d="M54.766 44.804C56.6656 44.804 58.2728 43.1966 58.3459 41.224C58.3459 39.3246 56.7386 37.7173 54.766 37.6442C52.8665 37.6442 51.2593 39.2516 51.1862 41.224C51.1862 43.1236 52.7935 44.7309 54.766 44.804Z" fill="#B0B0B0"/>
<path d="M38.5468 44.804C40.4462 44.804 42.0535 43.1966 42.1266 41.224C42.1266 39.3245 40.5193 37.7173 38.5468 37.6442C36.6472 37.6442 35.0399 39.2516 34.9668 41.224C34.9668 43.1236 36.5742 44.7308 38.5468 44.804Z" fill="#B0B0B0"/>
<path d="M22.3284 37.6442C20.4289 37.6442 18.8216 39.2516 18.7486 41.224C18.7486 43.1236 20.3558 44.7309 22.3284 44.804C24.2279 44.804 25.8352 43.1966 25.9082 41.224C25.8352 39.2516 24.2279 37.6442 22.3284 37.6442Z" fill="#B0B0B0"/>
<path d="M87.2042 61.6076C89.1032 61.6076 90.7108 60.0004 90.7831 58.0278C90.7831 56.1283 89.1765 54.521 87.2042 54.448C85.3041 54.448 83.6965 56.0552 83.6241 58.0278C83.6965 60.0004 85.2308 61.5346 87.2042 61.6076Z" fill="#B0B0B0"/>
<path d="M73.3956 60.5118C74.7676 59.1399 74.7676 56.9156 73.3956 55.5439C72.0236 54.172 69.7994 54.172 68.4275 55.5439C67.0557 56.9156 67.0557 59.1399 68.4275 60.5118C69.7994 61.8836 72.0236 61.8836 73.3956 60.5118Z" fill="#B0B0B0"/>
<path d="M57.1761 60.5118C58.548 59.1399 58.548 56.9156 57.1761 55.5438C55.8043 54.172 53.58 54.172 52.2081 55.5439C50.8364 56.9156 50.8363 59.1399 52.2082 60.5118C53.58 61.8837 55.8043 61.8837 57.1761 60.5118Z" fill="#B0B0B0"/>
<path d="M38.5471 61.6074C40.4465 61.6074 42.0538 60.0001 42.1269 58.0276C42.1269 56.128 40.5196 54.5208 38.5471 54.4478C36.6475 54.4478 35.0402 56.055 34.9672 58.0276C34.9672 60.0732 36.5015 61.6074 38.5471 61.6074Z" fill="#B0B0B0"/>
<path d="M22.3284 54.448C20.4289 54.448 18.8216 56.0552 18.7486 58.0278C18.7486 59.9273 20.3558 61.5346 22.3284 61.6076C24.2279 61.6076 25.8352 60.0004 25.9082 58.0278C25.8352 56.0552 24.301 54.521 22.3284 54.448Z" fill="#B0B0B0"/>
<path d="M89.6869 77.3883C91.059 76.0162 91.059 73.7917 89.6869 72.4207C88.3159 71.0486 86.0914 71.0486 84.7193 72.4207C83.3473 73.7917 83.3473 76.0162 84.7193 77.3883C86.0914 78.7603 88.3159 78.7603 89.6869 77.3883Z" fill="#B0B0B0"/>
<path d="M70.9843 71.2512C69.0848 71.2512 67.4776 72.8589 67.4044 74.8312C67.4044 76.7302 69.0118 78.3379 70.9843 78.4113C72.8841 78.4113 74.4907 76.8036 74.564 74.8312C74.4907 72.8589 72.9564 71.3246 70.9843 71.2512Z" fill="#B0B0B0"/>
<path d="M57.2498 77.3883C58.6216 76.0162 58.6217 73.7917 57.2498 72.4207C55.8779 71.0486 53.6537 71.0486 52.2818 72.4207C50.91 73.7917 50.91 76.0162 52.2818 77.3883C53.6537 78.7603 55.8779 78.7603 57.2498 77.3883Z" fill="#B0B0B0"/>
<path d="M38.5468 71.2512C36.6472 71.2512 35.0399 72.8589 34.9668 74.8312C34.9668 76.7302 36.5742 78.3379 38.5468 78.4113C40.4462 78.4113 42.0535 76.8036 42.1266 74.8312C42.0535 72.8589 40.5193 71.3246 38.5468 71.2512Z" fill="#B0B0B0"/>
<path d="M22.3284 71.2512C20.4289 71.2512 18.8216 72.8589 18.7486 74.8312C18.7486 76.7302 20.3558 78.3379 22.3284 78.4113C24.2279 78.4113 25.8352 76.8036 25.9082 74.8312C25.8352 72.8589 24.301 71.3246 22.3284 71.2512Z" fill="#B0B0B0"/>
<path d="M71.9036 6.58507C73.2746 5.2132 73.2746 2.98904 71.9036 1.61716C70.5315 0.245288 68.3071 0.245288 66.9353 1.61716C65.5634 2.98904 65.5634 5.2133 66.9353 6.58507C68.307 7.95695 70.5315 7.95695 71.9036 6.58507Z" fill="#FBDA14"/>
<path d="M53.2731 7.68037C55.1726 7.68037 56.7798 6.07314 56.8529 4.10056C56.8529 2.20104 55.2457 0.593799 53.2731 0.520752C51.3736 0.520752 49.7663 2.12799 49.6933 4.10056C49.6202 6.07314 51.2275 7.68037 53.2731 7.68037Z" fill="#FBDA14"/>
<path d="M37.0547 7.68037C38.9542 7.68037 40.5615 6.07314 40.6345 4.10056C40.6345 2.20104 39.0273 0.593799 37.0547 0.520752C35.1552 0.520752 33.5479 2.12799 33.4749 4.10056C33.4018 6.07314 35.0091 7.68037 37.0547 7.68037Z" fill="#FBDA14"/>
<path d="M20.8354 7.68109C22.735 7.68109 24.3422 6.07385 24.4152 4.10128C24.4152 2.20175 22.808 0.594512 20.8354 0.521362C18.9359 0.521362 17.3287 2.1287 17.2556 4.10128C17.1825 6.07385 18.7898 7.68109 20.8354 7.68109Z" fill="#FBDA14"/>
<path d="M7.02789 6.58538C8.39966 5.2136 8.39976 2.98934 7.02789 1.61747C5.65601 0.245593 3.43175 0.245593 2.05988 1.61747C0.688105 2.98934 0.688105 5.2135 2.05988 6.58538C3.43175 7.95725 5.65601 7.95725 7.02789 6.58538Z" fill="#FBDA14"/>
<path d="M69.4921 24.4839C71.3922 24.4839 72.9988 22.8766 73.0721 20.904C73.0721 19.0046 71.4645 17.3973 69.4921 17.3242C67.5929 17.3242 65.9856 18.9316 65.9125 20.904C65.8395 22.8766 67.4467 24.4839 69.4921 24.4839Z" fill="#FBDA14"/>
<path d="M55.6838 23.3885C57.0557 22.0167 57.0557 19.7925 55.6838 18.4206C54.312 17.0488 52.0878 17.0488 50.7159 18.4206C49.3441 19.7925 49.3441 22.0167 50.7159 23.3885C52.0878 24.7604 54.3121 24.7604 55.6838 23.3885Z" fill="#FBDA14"/>
<path d="M37.0547 24.4846C38.9542 24.4846 40.5615 22.8772 40.6345 20.9046C40.6345 19.0052 39.0273 17.3979 37.0547 17.3248C35.1552 17.3248 33.5479 18.9321 33.4749 20.9046C33.4018 22.8772 35.0091 24.4846 37.0547 24.4846Z" fill="#FBDA14"/>
<path d="M20.8354 24.4846C22.735 24.4846 24.3422 22.8772 24.4152 20.9046C24.4152 19.0052 22.808 17.3979 20.8354 17.3248C18.9359 17.3248 17.3287 18.9321 17.2556 20.9046C17.1825 22.8772 18.7898 24.4846 20.8354 24.4846Z" fill="#FBDA14"/>
<path d="M7.02789 23.3888C8.39966 22.017 8.39976 19.7927 7.02789 18.4209C5.65601 17.0491 3.43175 17.0491 2.05988 18.4209C0.688105 19.7928 0.688105 22.017 2.05988 23.3888C3.43175 24.7607 5.65601 24.7607 7.02789 23.3888Z" fill="#FBDA14"/>
<path d="M69.4188 41.3609C71.3189 41.3609 72.9255 39.7535 72.9988 37.781C72.9988 35.8815 71.3912 34.2742 69.4188 34.2011C67.4462 34.1281 65.9121 35.8084 65.839 37.781C65.839 39.6805 67.4463 41.2877 69.4188 41.3609Z" fill="#FBDA14"/>
<path d="M55.6838 40.1924C57.0557 38.8205 57.0557 36.5963 55.6838 35.2244C54.312 33.8526 52.0878 33.8526 50.7159 35.2244C49.3441 36.5963 49.3441 38.8205 50.7159 40.1924C52.0878 41.5642 54.3121 41.5643 55.6838 40.1924Z" fill="#FBDA14"/>
<path d="M36.9817 41.3609C38.8813 41.3609 40.4885 39.7536 40.5616 37.781C40.5616 35.8815 38.9543 34.2743 36.9817 34.2012C35.0822 34.2012 33.475 35.8085 33.4019 37.781C33.4019 39.6806 35.0092 41.2878 36.9817 41.3609Z" fill="#FBDA14"/>
<path d="M23.2462 40.1924C24.6181 38.8205 24.6181 36.5962 23.2462 35.2245C21.8743 33.8526 19.6501 33.8526 18.2783 35.2244C16.9064 36.5962 16.9064 38.8205 18.2783 40.1924C19.6501 41.5643 21.8743 41.5643 23.2462 40.1924Z" fill="#FBDA14"/>
<path d="M4.54414 34.2012C2.64461 34.2012 1.03738 35.8085 0.964329 37.7811C0.964329 39.6806 2.57156 41.2878 4.54414 41.3609C6.44366 41.3609 8.0509 39.7536 8.12395 37.7811C8.12395 35.7354 6.51671 34.1282 4.54414 34.2012Z" fill="#FBDA14"/>
<path d="M69.4198 58.1637C71.3188 58.1637 72.9265 56.5565 72.9988 54.5839C72.9988 52.6844 71.3922 51.0771 69.4198 51.0041C67.5199 51.0041 65.9126 52.6113 65.8396 54.5839C65.8396 56.4834 67.4468 58.0907 69.4198 58.1637Z" fill="#FBDA14"/>
<path d="M55.6838 56.9946C57.0557 55.6227 57.0557 53.3985 55.6838 52.0267C54.312 50.6548 52.0878 50.6548 50.7159 52.0267C49.3441 53.3985 49.3441 55.6227 50.7159 56.9946C52.0878 58.3665 54.3121 58.3665 55.6838 56.9946Z" fill="#FBDA14"/>
<path d="M39.4655 56.9949C40.8374 55.6231 40.8373 53.3988 39.4655 52.027C38.0937 50.6552 35.8694 50.6552 34.4975 52.0269C33.1257 53.3988 33.1257 55.6231 34.4976 56.9949C35.8694 58.3668 38.0937 58.3668 39.4655 56.9949Z" fill="#FBDA14"/>
<path d="M20.7624 58.1643C22.6619 58.1643 24.2692 56.5571 24.3423 54.5845C24.3423 52.685 22.735 51.0777 20.7624 51.0047C18.8629 51.0047 17.2557 52.6119 17.1825 54.5845C17.1825 56.484 18.7899 58.0913 20.7624 58.1643Z" fill="#FBDA14"/>
<path d="M4.54347 51.0044C2.64405 51.0044 1.03671 52.6116 0.963661 54.5842C0.890614 56.5568 2.5709 58.091 4.54347 58.164C6.51605 58.2371 8.05034 56.5568 8.12339 54.5842C8.12339 52.5386 6.51605 50.9313 4.54347 51.0044Z" fill="#FBDA14"/>
<path d="M72.9988 71.3878C72.9988 69.4888 71.3922 67.8812 69.4198 67.8088C67.5199 67.8088 65.9126 69.4155 65.8396 71.3878C65.8396 73.2879 67.4468 74.8955 69.4198 74.9678C71.3922 74.8955 72.9988 73.2879 72.9988 71.3878Z" fill="#FBDA14"/>
<path d="M55.6838 73.7983C57.0557 72.4262 57.0557 70.2017 55.6838 68.8307C54.312 67.4586 52.0878 67.4586 50.7159 68.8307C49.3441 70.2017 49.3441 72.4262 50.7159 73.7983C52.0878 75.1704 54.3121 75.1704 55.6838 73.7983Z" fill="#FBDA14"/>
<path d="M36.9817 67.8088C35.0822 67.8088 33.475 69.4154 33.4019 71.3878C33.4019 73.2878 35.0092 74.8955 36.9817 74.9678C38.8813 74.9678 40.4885 73.3612 40.5616 71.3878C40.5616 69.3431 38.9543 67.7355 36.9817 67.8088Z" fill="#FBDA14"/>
<path d="M20.7624 67.8076C18.8629 67.8076 17.2557 69.4142 17.1825 71.3866C17.1825 73.2866 18.7899 74.8943 20.7624 74.9666C22.6619 74.9666 24.2692 73.36 24.3423 71.3866C24.3423 69.3419 22.735 67.7342 20.7624 67.8076Z" fill="#FBDA14"/>
<path d="M4.54414 67.8076C2.64461 67.8076 1.03738 69.4142 0.964329 71.3866C0.964329 73.2866 2.57156 74.8943 4.54414 74.9666C6.44366 74.9666 8.0509 73.36 8.12395 71.3866C8.12395 69.3419 6.51671 67.7342 4.54414 67.8076Z" fill="#FBDA14"/>
</svg>
