<svg width="106" height="37" viewBox="0 0 106 37" fill="none" xmlns="http://www.w3.org/2000/svg">
<path d="M105.082 8.80911C105.082 8.44074 104.874 8.104 104.545 7.93926L94.6018 2.96777C91.7944 1.56404 88.4907 1.55994 85.6798 2.95667L79.371 6.09147C76.5679 7.48431 73.2744 7.48431 70.4713 6.09147L64.1486 2.94976C61.3455 1.55692 58.0519 1.55692 55.2488 2.94976L48.94 6.08457C46.1291 7.4813 42.8255 7.47719 40.018 6.07347L33.8066 2.96777C30.9992 1.56404 27.6956 1.55993 24.8846 2.95667L17.3702 6.69053C15.3258 7.70641 12.9244 7.71002 10.8769 6.7003L1.66941 2.15964C1.04846 1.85342 0.321777 2.3053 0.321777 2.99765C0.321777 3.35157 0.521735 3.6751 0.838284 3.83338L9.66774 8.24811C12.4752 9.65183 15.7788 9.65594 18.5897 8.25921L24.8846 5.13131C27.6956 3.73458 30.9992 3.73869 33.8066 5.14241L40.018 8.24811C42.8255 9.65183 46.1291 9.65594 48.94 8.25921L55.2488 5.1244C58.0519 3.73157 61.3455 3.73157 64.1486 5.12441L70.4713 8.26612C73.2744 9.65895 76.5679 9.65895 79.371 8.26611L86.621 4.66363C88.8392 3.56141 91.4463 3.56465 93.6618 4.67239L103.675 9.67895C104.322 10.0023 105.082 9.53206 105.082 8.80911Z" fill="#FEEA39"/>
<path d="M105.082 17.6023C105.082 17.2339 104.874 16.8972 104.545 16.7325L94.6018 11.761C91.7944 10.3573 88.4907 10.3531 85.6798 11.7499L79.371 14.8847C76.5679 16.2775 73.2744 16.2775 70.4713 14.8847L64.1486 11.743C61.3455 10.3501 58.0519 10.3501 55.2488 11.743L48.94 14.8778C46.1291 16.2745 42.8255 16.2704 40.018 14.8667L33.8066 11.761C30.9992 10.3573 27.6956 10.3531 24.8846 11.7499L17.3702 15.4837C15.3258 16.4996 12.9244 16.5032 10.8769 15.4935L1.66941 10.9529C1.04846 10.6466 0.321777 11.0985 0.321777 11.7909C0.321777 12.1448 0.521734 12.4683 0.838284 12.6266L9.66773 17.0413C12.4752 18.445 15.7788 18.4491 18.5897 17.0524L24.8846 13.9245C27.6956 12.5278 30.9992 12.5319 33.8066 13.9356L40.018 17.0413C42.8255 18.445 46.1291 18.4491 48.94 17.0524L55.2488 13.9176C58.0519 12.5248 61.3455 12.5248 64.1486 13.9176L70.4713 17.0593C73.2744 18.4522 76.5679 18.4522 79.371 17.0593L86.621 13.4568C88.8392 12.3546 91.4463 12.3578 93.6618 13.4656L103.675 18.4722C104.322 18.7955 105.082 18.3253 105.082 17.6023Z" fill="#FEEA39"/>
<path d="M105.082 26.3929C105.082 26.0261 104.875 25.6907 104.547 25.5266L94.6018 20.5541C91.7944 19.1503 88.4907 19.1462 85.6798 20.543L79.371 23.6778C76.5679 25.0706 73.2744 25.0706 70.4713 23.6778L64.1486 20.5361C61.3455 19.1432 58.0519 19.1432 55.2488 20.5361L48.94 23.6709C46.1291 25.0676 42.8255 25.0635 40.018 23.6598L33.8066 20.5541C30.9992 19.1503 27.6956 19.1462 24.8846 20.543L17.3702 24.2768C15.3258 25.2927 12.9244 25.2963 10.8769 24.2866L1.66712 19.7448C1.04723 19.4391 0.321777 19.8902 0.321777 20.5814C0.321777 20.9365 0.523465 21.2609 0.841997 21.418L9.68627 25.7795C12.4841 27.1593 15.7654 27.1543 18.5591 25.7662L24.8846 22.6231C27.6956 21.2263 30.9992 21.2304 33.8066 22.6342L40.018 25.7399C42.8255 27.1436 46.1291 27.1477 48.94 25.751L55.2488 22.6162C58.0519 21.2233 61.3455 21.2233 64.1486 22.6162L70.4713 25.7579C73.2744 27.1507 76.5679 27.1507 79.371 25.7579L86.6103 22.1607C88.8338 21.0559 91.4484 21.0657 93.6635 22.1873L103.676 27.257C104.321 27.5833 105.082 27.1151 105.082 26.3929Z" fill="#FEEA39"/>
<path d="M105.082 35.0677C105.082 34.7154 104.883 34.3933 104.568 34.2357L94.6018 29.2526C91.7944 27.8488 88.4907 27.8447 85.6798 29.2415L79.371 32.3763C76.5679 33.7691 73.2744 33.7691 70.4713 32.3763L64.1486 29.2346C61.3455 27.8417 58.0519 27.8417 55.2488 29.2346L48.94 32.3694C46.1291 33.7661 42.8255 33.762 40.018 32.3583L33.8066 29.2526C30.9992 27.8488 27.6956 27.8447 24.8846 29.2415L17.381 32.97C15.3312 33.9885 12.9222 33.9855 10.875 32.9619L1.72684 28.3878C1.0813 28.065 0.321777 28.5345 0.321777 29.2562C0.321777 29.6259 0.531702 29.9634 0.863241 30.1269L9.68627 34.478C12.4841 35.8578 15.7654 35.8528 18.5591 34.4647L24.8846 31.3215C27.6956 29.9248 30.9992 29.9289 33.8066 31.3326L40.018 34.4383C42.8255 35.8421 46.1291 35.8462 48.94 34.4494L55.2488 31.3146C58.0519 29.9218 61.3455 29.9218 64.1486 31.3146L70.4713 34.4563C73.2744 35.8492 76.5679 35.8492 79.371 34.4563L86.621 30.8539C88.8392 29.7516 91.4463 29.7549 93.6618 30.8626L103.736 35.8998C104.355 36.209 105.082 35.7593 105.082 35.0677Z" fill="#FEEA39"/>
</svg>
